<?xml version="1.0" encoding="UTF-8"?>
<svg xmlns="http://www.w3.org/2000/svg" version="1.1" viewBox="0 0 800 800">
  <defs>
    <style>
      .cls-1 {
        fill: #323e48;
      }

      .cls-2 {
        fill: #ff4713;
      }
    </style>
  </defs>
  <!-- Generator: Adobe Illustrator 28.7.1, SVG Export Plug-In . SVG Version: 1.2.0 Build 142)  -->
  <g>
    <g id="katman_1">
      <g>
        <path class="cls-2" d="M250.8,419c-3.2-3.2-8.3-3.2-11.5,0-4,4-8.4,7.4-13.2,10.3l-18.1-40.7c4.7-4.4,7.6-10.7,7.6-17.7,0-10.6-6.8-19.6-16.2-23v-25.8l-16.2,4.9v20.9c-9.5,3.4-16.2,12.4-16.2,23s2.9,13.2,7.6,17.7l-18.1,40.7c-4.7-2.8-9.2-6.3-13.2-10.3-3.2-3.2-8.3-3.2-11.5,0-3.2,3.2-3.2,8.3,0,11.5,5.4,5.4,11.5,10.1,18,13.8l-12,26.9,14.8,6.6,12-26.9c8.5,2.8,17.5,4.3,26.7,4.3s12.7-.7,18.8-2.1l-6.8-15.2c-3.9.7-8,1.1-12,1.1-6.9,0-13.6-1-20-3l18.1-40.7c.6,0,1.3,0,1.9,0s1.3,0,1.9,0l36.7,82.5,14.8-6.6-12-26.9c6.5-3.7,12.6-8.3,18-13.8,3.2-3.2,3.2-8.3,0-11.5ZM191.2,362.9c4.5,0,8.1,3.6,8.1,8.1s-3.6,8.1-8.1,8.1-8.1-3.6-8.1-8.1,3.6-8.1,8.1-8.1Z"/>
        <g>
          <g>
            <path class="cls-1" d="M308.7,388.3h12.6v37.9h-12.6v-3.5c-2.6,3-6.2,4.6-10.8,4.6s-9.3-1.9-12.7-5.7c-3.4-3.8-5.1-8.6-5.1-14.3s1.7-10.5,5.1-14.3c3.4-3.8,7.6-5.7,12.7-5.7s8.2,1.5,10.8,4.6v-3.5ZM295,413.3c1.5,1.5,3.4,2.3,5.8,2.3s4.3-.8,5.8-2.3c1.5-1.5,2.2-3.5,2.2-6s-.7-4.5-2.2-6c-1.5-1.5-3.4-2.3-5.8-2.3s-4.3.8-5.8,2.3c-1.5,1.5-2.2,3.5-2.2,6s.7,4.5,2.2,6Z"/>
            <path class="cls-1" d="M351.8,400.4h-7.9v11c0,1.7.6,2.7,1.8,3.1,1.2.4,3.2.5,6.1.4v11.4c-7.5.9-12.8.2-15.9-2.1-3.1-2.3-4.6-6.5-4.6-12.5v-11.3h-5.7v-12.1h5.7v-6.8l12.6-3.8v10.6h7.9v12.1Z"/>
            <path class="cls-1" d="M375.6,427.3c-5.6,0-10.4-1.9-14.3-5.8-3.9-3.9-5.9-8.6-5.9-14.2s2-10.4,5.9-14.2c3.9-3.9,8.7-5.8,14.3-5.8s10.5,1.9,14.4,5.8c3.9,3.9,5.9,8.6,5.9,14.2s-2,10.4-5.9,14.2c-3.9,3.9-8.7,5.8-14.4,5.8ZM368.2,384.9c-1.7,0-3.1-.6-4.3-1.8-1.2-1.2-1.8-2.6-1.8-4.3s.6-3.1,1.8-4.3c1.2-1.2,2.6-1.8,4.3-1.8s3,.6,4.2,1.8c1.2,1.2,1.8,2.6,1.8,4.3s-.6,3.1-1.8,4.3c-1.2,1.2-2.6,1.8-4.2,1.8ZM375.6,415.2c2.2,0,4.1-.7,5.5-2.2,1.4-1.5,2.2-3.4,2.2-5.7s-.7-4.2-2.2-5.7c-1.4-1.5-3.3-2.2-5.5-2.2s-4,.7-5.4,2.2c-1.4,1.5-2.2,3.4-2.2,5.7s.7,4.2,2.2,5.7c1.4,1.5,3.2,2.2,5.4,2.2ZM382.9,384.9c-1.6,0-3-.6-4.2-1.8-1.2-1.2-1.8-2.6-1.8-4.3s.6-3.1,1.8-4.3c1.2-1.2,2.6-1.8,4.2-1.8s3.1.6,4.3,1.8c1.2,1.2,1.8,2.6,1.8,4.3s-.6,3.1-1.8,4.3c-1.2,1.2-2.6,1.8-4.3,1.8Z"/>
            <path class="cls-1" d="M400.9,426.3v-55.4h12.6v55.4h-12.6Z"/>
            <path class="cls-1" d="M444.1,388.3h14l-13,37.3c-2,5.7-4.9,9.8-8.6,12.4-3.7,2.5-8.5,3.7-14.3,3.4v-11.8c2.7,0,4.7-.3,6.1-1,1.4-.7,2.5-1.8,3.3-3.6l-15.2-36.7h14.1l7.7,22,5.9-22Z"/>
            <path class="cls-1" d="M470.8,411.9c1.3,3.1,4.1,4.6,8.5,4.6s5-.9,6.9-2.7l9.1,6.4c-3.7,4.7-9.2,7.1-16.3,7.1s-11.6-1.9-15.4-5.7c-3.9-3.8-5.8-8.5-5.8-14.3s1.9-10.5,5.7-14.3c3.8-3.8,8.6-5.8,14.5-5.8s10.3,1.9,14,5.7c3.7,3.8,5.5,8.5,5.5,14.3s-.2,3.2-.5,4.7h-26.2ZM470.7,403.2h14.6c-1-3.5-3.4-5.3-7.1-5.3s-6.4,1.8-7.4,5.3Z"/>
          </g>
          <g>
            <path class="cls-1" d="M538.5,388h5v36.7c0,5.5-1.9,9.8-5.7,13-3.8,3.2-8.3,4.7-13.5,4.7-9,0-15-3.1-18.1-9.3l4.4-2.5c2.3,4.6,6.8,6.9,13.7,6.9s7.8-1.2,10.3-3.5c2.5-2.3,3.8-5.4,3.8-9.4v-6c-3.5,5.6-8.7,8.4-15.4,8.4s-10.1-1.9-13.9-5.8c-3.8-3.9-5.8-8.6-5.8-14.2s1.9-10.3,5.8-14.2c3.8-3.9,8.5-5.8,13.9-5.8s11.9,2.8,15.4,8.4v-7.5ZM512.8,417.8c2.9,2.9,6.5,4.4,10.7,4.4s7.8-1.5,10.7-4.4c2.9-2.9,4.4-6.5,4.4-10.7s-1.5-7.8-4.4-10.7c-2.9-2.9-6.5-4.4-10.7-4.4s-7.8,1.5-10.7,4.4c-2.9,2.9-4.4,6.5-4.4,10.7s1.5,7.8,4.4,10.7Z"/>
            <path class="cls-1" d="M570,387.1c5.7,0,10.2,2,13.7,6,3.5,4,5.2,8.7,5.2,14.2s0,1.3-.2,2.4h-33.5c.5,3.9,2.2,6.9,4.9,9.2,2.8,2.3,6.2,3.4,10.3,3.4s5.4-.6,7.5-1.8c2.1-1.2,3.7-2.8,4.8-4.7l4.4,2.6c-1.7,2.7-4,4.8-6.9,6.4-2.9,1.6-6.2,2.4-9.9,2.4-6,0-10.9-1.9-14.7-5.7-3.8-3.8-5.7-8.6-5.7-14.4s1.9-10.5,5.6-14.3c3.7-3.8,8.5-5.7,14.4-5.7ZM570,392c-4,0-7.3,1.2-10,3.6s-4.3,5.4-4.8,9.2h28.5c-.5-4-2.1-7.2-4.7-9.4-2.6-2.2-5.6-3.4-9.1-3.4Z"/>
            <path class="cls-1" d="M612.9,387.1c4.6,0,8.3,1.4,11,4.2s4,6.6,4,11.4v23.4h-5v-23.4c0-3.4-.9-6.1-2.7-7.9-1.8-1.9-4.4-2.8-7.7-2.8s-6.6,1.2-8.9,3.5c-2.3,2.3-3.4,5.9-3.4,10.7v20h-5v-38.2h5v6c2.9-4.6,7.1-6.9,12.8-6.9Z"/>
            <path class="cls-1" d="M670.7,417.2c-1.4,2.8-3.5,5-6.1,6.8-2.7,1.8-5.7,2.8-9,3.1v2.6c2.2.4,3.9,1.1,5.2,2.2,1.3,1.1,1.9,2.4,1.9,4,0,5.2-5.2,7.5-15.7,6.9v-4.1c7.5.6,11.2-.3,11.2-2.7s-2.4-3-7.1-3.1v-5.7c-5.1-.6-9.4-2.7-12.7-6.4-3.3-3.7-5-8.2-5-13.4s1.9-10.4,5.7-14.2c3.8-3.8,8.6-5.8,14.4-5.8s7.2.9,10.2,2.7c3,1.8,5.2,4.2,6.6,7.3l-4.1,2.4c-1-2.3-2.7-4.1-4.9-5.5-2.3-1.3-4.8-2-7.7-2-4.2,0-7.8,1.5-10.7,4.4-2.9,2.9-4.4,6.5-4.4,10.7s1.5,7.8,4.4,10.7c2.9,2.9,6.5,4.4,10.7,4.4s5.4-.7,7.6-2c2.2-1.3,4-3.2,5.3-5.5l4.2,2.4Z"/>
          </g>
        </g>
        <g>
          <path class="cls-2" d="M549.8,455.4l-.6-2.2h-4.8l-.6,2.2h-5.1l5.3-16.8h5.6l5.3,16.8h-5.1ZM545.4,449.4h2.8l-1.4-5.1-1.4,5.1Z"/>
          <path class="cls-2" d="M570.7,455.4h-5.3l-4.2-7.2v7.2h-4.8v-16.8h4.8v6.7l3.9-6.7h5.3l-5,8.1,5.2,8.6Z"/>
          <path class="cls-2" d="M583.1,455.4l-.6-2.2h-4.8l-.6,2.2h-5.1l5.3-16.8h5.6l5.3,16.8h-5.1ZM578.8,449.4h2.8l-1.4-5.1-1.4,5.1Z"/>
          <path class="cls-2" d="M611.3,451h6.2v4.4h-11v-16.8h10.9v4.4h-6.1v1.8h5.5v4.3h-5.5v1.9Z"/>
          <path class="cls-2" d="M636.9,438.6v16.8h-4.8v-8.2l-3.7,6.3h-.4l-3.7-6.3v8.2h-4.8v-16.8h4.8l3.9,6.8,3.9-6.8h4.8Z"/>
          <path class="cls-2" d="M602.4,441c-1.6-1.6-3.5-2.4-5.8-2.4h-6.9v4.7h5s1.9,0,1.9,0c1,0,1.8.3,2.4,1,.6.7.9,1.6.9,2.7s-.3,2-.9,2.7c-.6.7-1.4,1-2.4,1h-1.9v-5.7h-5v10.3h6.9c2.3,0,4.2-.8,5.8-2.4,1.6-1.6,2.3-3.6,2.3-6s-.8-4.4-2.3-6Z"/>
          <g>
            <rect class="cls-2" x="638.6" y="438.6" width="4.8" height="2.7"/>
            <rect class="cls-2" x="638.6" y="443.1" width="4.8" height="12.3"/>
          </g>
        </g>
      </g>
    </g>
  </g>
</svg>